DBRep_DrawableShape

CASCADE Topology V1, (c) Matra-Datavision
Locations 1
1
-0.780643883511364 0.148752492259111 -0.607015504895055 -0.656061868852241 
-0.286051691908147 -0.948597675833818 0.135413732535386 48.8252840661969 
-0.555670366937794 0.279347714236902 0.783067875639038 -15.7403485940492 
Curve2ds 24
1 0 0 1 0 
1 0 0 1 0 
1 1 0 0 -1 
1 0 0 0 1 
1 0 -10 1 0 
1 0 0 1 0 
1 0 0 0 -1 
1 0 0 0 1 
1 0 0 1 0 
1 0 100 1 0 
1 1 0 0 -1 
1 100 0 0 1 
1 0 -10 1 0 
1 0 100 1 0 
1 0 0 0 -1 
1 100 0 0 1 
1 0 0 0 1 
1 0 0 1 0 
1 1 0 0 1 
1 0 0 1 0 
1 0 0 0 1 
1 0 10 1 0 
1 1 0 0 1 
1 0 10 1 0 
Curves 12
1 0 0 0 0 0 1 
1 0 0 1 -0 1 0 
1 0 10 0 0 0 1 
1 0 0 0 -0 1 0 
1 100 0 0 0 0 1 
1 100 0 1 0 1 0 
1 100 10 0 0 0 1 
1 100 0 0 -0 1 0 
1 0 0 0 1 0 -0 
1 0 0 1 1 0 -0 
1 0 10 0 1 0 -0 
1 0 10 1 1 0 -0 
Polygon3D 0
PolygonOnTriangulations 24
2 1 2 
p 0.0740000011026859 1 0 1 
2 1 4 
p 0.0740000011026859 1 0 1 
2 2 3 
p 0.0740000011026859 1 0 10 
2 1 2 
p 0.0740000011026859 1 0 10 
2 4 3 
p 0.0740000011026859 1 0 1 
2 1 4 
p 0.0740000011026859 1 0 1 
2 1 4 
p 0.0740000011026859 1 0 10 
2 1 2 
p 0.0740000011026859 1 0 10 
2 1 2 
p 0.0740000011026859 1 0 1 
2 2 3 
p 0.0740000011026859 1 0 1 
2 2 3 
p 0.0740000011026859 1 0 10 
2 4 3 
p 0.0740000011026859 1 0 10 
2 4 3 
p 0.0740000011026859 1 0 1 
2 2 3 
p 0.0740000011026859 1 0 1 
2 1 4 
p 0.0740000011026859 1 0 10 
2 4 3 
p 0.0740000011026859 1 0 10 
2 1 2 
p 0.0740000011026859 1 0 100 
2 1 4 
p 0.0740000011026859 1 0 100 
2 4 3 
p 0.0740000011026859 1 0 100 
2 1 4 
p 0.0740000011026859 1 0 100 
2 1 2 
p 0.0740000011026859 1 0 100 
2 2 3 
p 0.0740000011026859 1 0 100 
2 4 3 
p 0.0740000011026859 1 0 100 
2 2 3 
p 0.0740000011026859 1 0 100 
Surfaces 6
1 0 0 0 1 0 -0 0 0 1 0 -1 0 
1 0 0 0 -0 1 0 0 0 1 1 0 -0 
1 0 0 1 0 0 1 1 0 -0 -0 1 0 
1 0 10 0 -0 1 0 0 0 1 1 0 -0 
1 0 0 0 0 0 1 1 0 -0 -0 1 0 
1 100 0 0 1 0 -0 0 0 1 0 -1 0 
Triangulations 6
4 2 1 0
0 0 0 0 0 1 0 10 1 0 10 0 0 0 1 0 1 -10 0 -10 2 4 3 2 1 4 
4 2 1 0
0 0 0 100 0 0 100 0 1 0 0 1 0 0 0 100 1 100 1 0 3 2 1 3 1 4 
4 2 1 0
0 0 1 0 10 1 100 10 1 100 0 1 0 0 0 10 100 10 100 0 3 2 1 3 1 4 
4 2 1 0
0 10 0 100 10 0 100 10 1 0 10 1 0 0 0 100 1 100 1 0 3 2 1 3 1 4 
4 2 1 0
0 0 0 0 10 0 100 10 0 100 0 0 0 0 0 10 100 10 100 0 3 2 1 3 1 4 
4 2 1 0
100 0 0 100 0 1 100 10 1 100 10 0 0 0 1 0 1 -10 0 -10 2 4 3 2 1 4 

TShapes 35
Ve
1e-07
0 0 1
0 0

0101101
*
Ve
1e-07
0 0 0
0 0

0101101
*
Ed
 1e-07 1 1 0
1  1 0 0 1
2  1 1 0 0 1
2  2 2 0 0 1
6  1 1 0
6  2 2 0
0

0101000
-35 0 +34 0 *
Ve
1e-07
0 10 1
0 0

0101101
*
Ed
 1e-07 1 1 0
1  2 0 0 10
2  3 1 0 0 10
2  4 3 0 0 10
6  3 1 0
6  4 3 0
0

0101000
-32 0 +35 0 *
Ve
1e-07
0 10 0
0 0

0101101
*
Ed
 1e-07 1 1 0
1  3 0 0 1
2  5 1 0 0 1
2  6 4 0 0 1
6  5 1 0
6  6 4 0
0

0101000
-32 0 +30 0 *
Ed
 1e-07 1 1 0
1  4 0 0 10
2  7 1 0 0 10
2  8 5 0 0 10
6  7 1 0
6  8 5 0
0

0101000
-30 0 +34 0 *
Wi

0101000
-33 0 -31 0 +29 0 +28 0 *
Fa
0  1e-07 1 0
2  1
0101000
+27 0 *
Ve
1e-07
100 0 1
0 0

0101101
*
Ve
1e-07
100 0 0
0 0

0101101
*
Ed
 1e-07 1 1 0
1  5 0 0 1
2  9 6 0 0 1
2  10 2 0 0 1
6  9 6 0
6  10 2 0
0

0101000
-25 0 +24 0 *
Ve
1e-07
100 10 1
0 0

0101101
*
Ed
 1e-07 1 1 0
1  6 0 0 10
2  11 6 0 0 10
2  12 3 0 0 10
6  11 6 0
6  12 3 0
0

0101000
-22 0 +25 0 *
Ve
1e-07
100 10 0
0 0

0101101
*
Ed
 1e-07 1 1 0
1  7 0 0 1
2  13 6 0 0 1
2  14 4 0 0 1
6  13 6 0
6  14 4 0
0

0101000
-22 0 +20 0 *
Ed
 1e-07 1 1 0
1  8 0 0 10
2  15 6 0 0 10
2  16 5 0 0 10
6  15 6 0
6  16 5 0
0

0101000
-20 0 +24 0 *
Wi

0101000
-23 0 -21 0 +19 0 +18 0 *
Fa
0  1e-07 6 0
2  6
0101000
+17 0 *
Ed
 1e-07 1 1 0
1  9 0 0 100
2  17 2 0 0 100
2  18 5 0 0 100
6  17 2 0
6  18 5 0
0

0101000
-24 0 +34 0 *
Ed
 1e-07 1 1 0
1  10 0 0 100
2  19 2 0 0 100
2  20 3 0 0 100
6  19 2 0
6  20 3 0
0

0101000
-25 0 +35 0 *
Wi

0101000
-15 0 -23 0 +14 0 +33 0 *
Fa
0  1e-07 2 0
2  2
0101000
+13 0 *
Ed
 1e-07 1 1 0
1  11 0 0 100
2  21 4 0 0 100
2  22 5 0 0 100
6  21 4 0
6  22 5 0
0

0101000
-20 0 +30 0 *
Ed
 1e-07 1 1 0
1  12 0 0 100
2  23 4 0 0 100
2  24 3 0 0 100
6  23 4 0
6  24 3 0
0

0101000
-22 0 +32 0 *
Wi

0101000
-11 0 -19 0 +10 0 +29 0 *
Fa
0  1e-07 4 0
2  4
0101000
+9 0 *
Wi

0101000
-28 0 -11 0 +18 0 +15 0 *
Fa
0  1e-07 5 0
2  5
0101000
+7 0 *
Wi

0101000
-31 0 -10 0 +21 0 +14 0 *
Fa
0  1e-07 3 0
2  3
0101000
+5 0 *
Sh

0101100
-26 0 +16 0 -12 0 +8 0 -6 0 +4 0 *
So

0100000
+3 0 *
Co

1100000
+2 1 *

+1 0 Physical Volume(13) = {1};
Physical Volume(14) = {1};
